<svg id="Layer_1" data-name="Layer 1" xmlns="http://www.w3.org/2000/svg" viewBox="0 0 1000 1000"><defs><style>.cls-1{fill:#272361;}.cls-2{fill:#f9ed32;}.cls-3{fill:#fbb040;}.cls-10,.cls-4,.cls-5{fill:#fff200;}.cls-4,.cls-5{stroke:#231f20;stroke-miterlimit:10;}.cls-4{stroke-width:4.13px;}.cls-5{stroke-width:4.5px;}.cls-6{fill:#fff;opacity:0.25;}.cls-7{fill:#231f20;}.cls-8{fill:#ec008c;}.cls-9{fill:#9e1f63;}</style></defs><rect class="cls-1" width="1000" height="1000" rx="500"/><path class="cls-2" d="M7,275.05,6,276.1c48,78,107.12,134.3,205.09,179.59,55.87,25.83,108,46.79,171.31,61.73,300.47,70.9,380.89,57.87,574.3,77.58,11.61,1.18,53.86,5.49,33.9-2.76C807.4,524.22,646.93,465,471.91,407.67c-38.05-12.45-76.74-23.37-117.15-34.3C234.13,340.76,122.85,311.2,7,275.05Z"/><path class="cls-3" d="M101.43,387.83c15.76.46,60.94,10,76,14.62,73.48,22.72,144.24,54.14,218.83,72.9,26.49,6.66,53.36,11.7,79.92,18.06,61.55,14.74,122.56,37.26,171.83,77l-85.44-15.24c-35.47-6.33-71-12.65-106.28-19.73-63.7-12.75-127.2-28-187.44-52.34-30.28-12.23-59.18-27.15-88.58-41.26-9.58-4.6-18-8.28-26-15.6-5.2-4.78-17.11-7.68-21.09-13.53C132.11,411.1,102,387.84,101.43,387.83Z"/><path class="cls-2" d="M27.47,378.47c15.15,25.27,33.26,39.21,54.66,59.46,36.72,34.73,73.66,73.74,114,94.8,155.75,81.35,190.18,81,323.29,120.14C580.94,671,771.26,717,833.63,732c28.49,6.85,72.3,13,98.94.79,23.4-10.74,42.79-38.28,50.66-62.8s10.56-47.69,11.43-73.42c-22.27-.83-60.08-4.1-82.31-5.74-90-6.67-138.22-9.7-248.07-20.47-35.23-3.45-63.86-8.88-95.52-14.2-147-24.68-283.91-58.45-406.42-125.75-18.89-10.37-40.52-24.37-56.59-38.74C74,363.26,59.43,350,42.09,327.73c-26.94-34.58-37.44-53.8-37.44-53.8-2.37.92-3.3,13.39-2,28.43C4.47,322.9,16,361.3,27.47,378.47Z"/><path class="cls-4" d="M265.59,475a17.64,17.64,0,0,1-5.46.9c-2.31-.08-10.5-2.87-7.92-6.61,1-1.44,5-1.51,6.64-1.89,2.68-.63,5.36-1.34,8-2.11,10.77-3.11,21.24-7.18,31.7-11.18,5.77-2.2,11.55-4.4,17.39-6.42,20.79-7.19,42.37-12.11,62.65-20.62,2.89-1.22,5.81-2.52,8.93-2.87,2.74-.3,6.63.23,8.43,2.73-5.67,4.12-14.3,6.39-20.86,9q-11.57,4.6-23.35,8.61C338,449.25,324,453.32,310.17,458c-7.69,2.59-15.31,5.37-22.89,8.24-4.86,1.84-9.48,4.23-14.33,6.08-1.52.58-6,1.44-7,2.61s-.2,5-.11,6.77c8.24-.58,15.55-5.22,23.31-8.06,4.18-1.54,8.53-2.55,12.8-3.83,4.49-1.34,8.89-3,13.3-4.59q6.84-2.51,13.69-5l6-2.15c19.5-7.06,39-14.12,58.89-20a2.79,2.79,0,0,0,2.69-3,60.39,60.39,0,0,0,.11-7"/><path class="cls-4" d="M150.17,415.84a17.64,17.64,0,0,1-5.46.9c-2.31-.08-10.5-2.87-7.92-6.61,1-1.43,5-1.51,6.63-1.89,2.69-.63,5.36-1.34,8-2.11C162.21,403,172.68,399,183.14,395c5.77-2.2,11.55-4.4,17.39-6.42,20.79-7.18,42.37-12.1,62.65-20.62,2.89-1.22,5.81-2.52,8.93-2.86,2.74-.31,6.63.22,8.43,2.72-5.67,4.13-14.3,6.4-20.86,9q-11.56,4.61-23.35,8.61c-13.79,4.69-27.79,8.75-41.58,13.41-7.69,2.59-15.31,5.37-22.89,8.24-4.86,1.84-9.48,4.23-14.33,6.08-1.52.58-6,1.44-7,2.61s-.2,5-.11,6.77c8.24-.58,15.55-5.22,23.31-8.06,4.18-1.53,8.53-2.55,12.8-3.83,4.49-1.34,8.89-3,13.3-4.59s9.12-3.32,13.69-5l6-2.15c19.49-7.06,39-14.12,58.89-20a3.84,3.84,0,0,0,2.28-1.33,3.78,3.78,0,0,0,.41-1.67,60.39,60.39,0,0,0,.11-7"/><path class="cls-4" d="M320.67,493.59a17.58,17.58,0,0,1-5.45.9c-2.31-.08-10.5-2.87-7.92-6.61,1-1.44,5-1.51,6.63-1.89,2.69-.63,5.36-1.34,8-2.11,10.78-3.11,21.24-7.18,31.7-11.18,5.78-2.21,11.55-4.4,17.39-6.42,20.79-7.19,42.38-12.11,62.66-20.62,2.89-1.22,5.8-2.52,8.92-2.87,2.75-.3,6.64.23,8.44,2.73-5.68,4.12-14.31,6.39-20.86,9q-11.56,4.61-23.36,8.61c-13.79,4.68-27.78,8.75-41.58,13.41-7.68,2.59-15.31,5.37-22.89,8.24-4.85,1.84-9.47,4.23-14.32,6.08-1.53.58-6,1.44-7,2.61s-.2,5-.11,6.77c8.24-.58,15.56-5.23,23.31-8.07,4.19-1.53,8.54-2.54,12.81-3.82,4.49-1.34,8.89-3,13.29-4.59q6.84-2.5,13.69-5l6-2.16c19.5-7.05,39-14.11,58.89-20a3.75,3.75,0,0,0,2.28-1.32,3.56,3.56,0,0,0,.41-1.67,60.39,60.39,0,0,0,.11-7"/><path class="cls-5" d="M487,534.64a19.14,19.14,0,0,1-6,1c-2.51-.09-11.44-3.13-8.62-7.21,1.07-1.56,5.48-1.64,7.22-2,2.93-.69,5.84-1.47,8.73-2.3,11.73-3.39,23.13-7.82,34.53-12.18,6.29-2.4,12.58-4.79,18.94-7,22.64-7.83,46.16-13.19,68.25-22.47,3.15-1.32,6.32-2.74,9.72-3.12,3-.33,7.23.25,9.19,3-6.18,4.5-15.58,7-22.72,9.81q-12.6,5-25.44,9.37c-15,5.11-30.27,9.54-45.3,14.61-8.37,2.82-16.67,5.85-24.93,9-5.29,2-10.32,4.61-15.6,6.62-1.66.63-6.56,1.57-7.6,2.84s-.22,5.47-.12,7.38c9-.64,16.94-5.69,25.39-8.79,4.56-1.66,9.3-2.77,14-4.16,4.89-1.47,9.68-3.25,14.48-5q7.44-2.75,14.91-5.43l6.49-2.34c21.24-7.69,42.5-15.38,64.16-21.79a4.11,4.11,0,0,0,2.47-1.45,3.89,3.89,0,0,0,.45-1.82,64.39,64.39,0,0,0,.12-7.61"/><path class="cls-6" d="M155.38,459.24a36.69,36.69,0,0,0,2.21,9.61,42.93,42.93,0,0,0,4.65,8.21,133.23,133.23,0,0,0,38.4,37c8.45,5.35,17.66,9.79,27.53,11.36s20.5,0,28.69-5.69c10.94-7.66,15.89-21.3,18.6-34.37-17.4-7.81-32.73-12.79-49-22.68-5.75-3.49-14.27-7.18-20.4-9.95-12-5.43-24.21-11.29-35.85-17.65-2.34-1.28-5.69-5-8.08-5.55-3.88-.95-4.13,2.36-5,5.85A66.44,66.44,0,0,0,155.38,459.24Z"/><path class="cls-6" d="M33.17,314c3.63,4.65,6.61,9.77,10.14,14.5,5.34,7.17,11.9,13.4,16.89,20.82,9.23,13.74,12.44,30.5,17.54,46.25a192.65,192.65,0,0,0,45.61,75.35c4.39,4.48,9.11,8.88,11.76,14.56l-33.88-30-21.6-19.14c-11.89-10.54-23.82-21.13-34.17-33.18A177.11,177.11,0,0,1,3.23,284.53c.08-3.16,1.14-11.12,4.07-4.91,2.05,4.33,3.58,8.46,6.45,12.4C19.54,299.93,27.15,306.28,33.17,314Z"/><path class="cls-6" d="M682.94,682.74c9.4,1.85,18.81,3.69,28.25,5.37q37.37,6.66,75.26,9.8c-6.12,2.71-103.52-2.4-110.26-4.31-9.58-2.71-18.62-7.35-28.48-8.73C613,680,579.14,670.37,545.78,659.76c-9-2.86-19.26-5-27.69-9.13,9.9-.34,21.68,4,31.46,5.9l32.5,6.39,65,12.77Z"/><path class="cls-3" d="M819.42,723.46c16-.27,32.47-.68,46.82-7.64,6.62-3.21,12.52-7.7,18.32-12.22,15.37-12,30.54-24.49,42.79-39.65s21.52-33.27,23.46-52.67c.1-1,1.77-13.38,2.51-14.1s7.47-.51,8.61-.46c11.33.48,17.4.65,28.68,1.77.94.09,3.16.29,3.87.9,1,.82-1.77,13.73-1.72,15,1.09,27.71-6.58,55.57-20.9,79.31-8.35,13.85-19.21,26.59-33.27,34.56-9,5.08-19,8.09-29.09,10.2-7.46,1.57-15.27,2.66-22.64.71-3.39-.9-8.32.74-11.7-.19-7.27-2-13.43-1.56-21.53-2.83-11.43-1.8-22-5.63-33.18-8.35a158.2,158.2,0,0,0-16.7-3.36c-5.3-.71-11.31.12-16.4-1.14,2.4-3.53,10.14-.45,13.71-.15A175.67,175.67,0,0,0,819.42,723.46Z"/><path class="cls-7" d="M987.61,601.31c-2.34,0-5.13-.09-8.34-.26-8.61-.47-18.31-1.46-23-1.94-51.55-5.25-94.9-8.16-136.83-11-116.63-7.84-217.36-14.62-438-66.68-68.15-16.08-123-39.3-172.1-62C115.91,416.26,54,362.08,2.45,278.27L.74,275.49l5.13-5.13,2.39.74C113.61,304,215.6,331.52,323.58,360.67l32.26,8.71c35.15,9.5,76.57,21,117.35,34.36C642.59,459.18,795.08,515.23,992,588.37l.14,0c3.1,1.29,8.88,3.67,7.69,8.37-1,4.06-6.16,4.31-8.93,4.45C989.94,601.29,988.84,601.31,987.61,601.31ZM14.32,281.65c49.72,78,109.55,129.18,198.47,170.29,48.72,22.52,103.09,45.55,170.53,61.46,220,51.91,320.43,58.66,436.69,66.48,42,2.82,85.43,5.74,137.07,11,10.37,1.06,17.81,1.64,23.16,1.94C787.69,521.33,637.32,466.15,470.62,411.6c-40.6-13.29-81.89-24.76-116.94-34.24l-32.25-8.71C216.28,340.26,116.81,313.41,14.32,281.65Z"/><path class="cls-7" d="M892.83,741.86c-23.51,0-47.29-4.85-59.68-7.83-74.83-18-255.24-61.79-314.34-79.18-27.17-8-50.48-14.42-71-20.08-80.12-22.06-128.47-35.37-252.61-100.21-34.09-17.8-65.92-48.47-96.69-78.13-5.82-5.62-11.85-11.42-17.75-17-4-3.83-8-7.43-11.78-10.92-16.51-15.14-30.77-28.22-43.21-48.93C14,362,2.41,323.06.61,302.54a133.2,133.2,0,0,1-.4-19.84c.6-8.4,2.2-10.12,3.69-10.7l1.69-.66.87,1.6c.11.19,10.77,19.51,37.26,53.52C61,348.57,75.61,362,107.13,390.15c14,12.52,34.49,26.54,56.2,38.47C295.92,501.45,442.85,532.94,569.1,554.14L585,556.86c25.86,4.43,50.28,8.61,79.44,11.47,93.1,9.12,141.9,12.68,209.45,17.62l38.57,2.83c5.49.41,12,.92,18.82,1.46,20.8,1.63,46.67,3.66,63.42,4.28l2.06.08-.07,2.06c-1,29.84-4.47,52-11.54,74a124.67,124.67,0,0,1-19.84,37.19c-9.6,12.39-20.64,21.67-31.92,26.85C921.85,740,907.39,741.86,892.83,741.86ZM4.88,278.42c-.72,4-1.17,12.12-.15,23.76,1.76,20.06,13.06,58.05,24.46,75.15l0,.08c12.13,20.22,26.2,33.12,42.48,48,3.82,3.5,7.77,7.12,11.83,11,5.92,5.6,12,11.41,17.78,17,30.56,29.46,62.17,59.92,95.73,77.45,123.75,64.63,172,77.9,251.8,99.88,20.58,5.67,43.92,12.09,71.12,20.1C579,668.25,759.32,712,834.11,730c19.64,4.73,68.47,14.28,97.6.92,24-11,42.51-39.62,49.55-61.55,6.78-21.12,10.17-42.4,11.26-70.81-16.83-.7-41.52-2.64-61.52-4.21-6.86-.54-13.33-1.05-18.8-1.45-13.71-1-26.44-1.95-38.57-2.84-67.58-4.94-116.4-8.5-209.55-17.63-29.31-2.87-53.81-7.07-79.73-11.51-5.26-.9-10.55-1.81-15.94-2.71-84-14.11-151.58-29-212.62-47-73.11-21.46-136.72-47.31-194.45-79-22-12.07-42.74-26.29-57-39C72.67,364.88,57.91,351.4,40.46,329,20.22,303,9.12,285.49,4.88,278.42Z"/><path class="cls-7" d="M42.38,327.55h-.27l1.32,0A20.41,20.41,0,0,1,45.86,317a41.32,41.32,0,0,1,24.78-21.26c-19.8-7-39.73-14.06-60.48-17.35,3,6.72,8.46,11.73,12.8,17.67,3.57,4.89,6.18,10.39,9.28,15.58C35.44,317,38.19,323,42.38,327.55Z"/><path class="cls-7" d="M843.66,536.24a11,11,0,0,0,2.63,2.13,8,8,0,0,0,1.06.52c4.78,1.59,6.46,8.55,7.9,13.37a16.84,16.84,0,0,1,.62,8.29c-1,4.38-4.38,7.79-8,10.38-12.27,8.66-28.13,10.46-43.14,9.81,32.65,2.32,65.15,6.33,97.75,9.19,9.48.84,19,1.57,28.45,2.31l29,2.25c9.22.71,18.5,1.42,27.7.56A189.79,189.79,0,0,0,932.08,567c-6.16-1.93-12.43-3.55-18.37-6.07-4.35-1.85-8.48-4.18-12.84-6-11-4.62-23.17-5.91-34.48-9.79-6.86-2.35-15.44-4-22-7C843.65,537.77,843.62,537,843.66,536.24Z"/><path class="cls-8" d="M109.25,121.93c-3.36-3.62-5-5.42-3.53-10.82,1.41-5.13,6.47-10.42,10.88-13.4s9.13-3.86,5.67-9.06c-1-1.57-5.12-1.28-7-.88C86.71,94,64.49,119.58,59.68,148.46c-.37,2.22.13,4.84,3,6.12s4.07.77,6.17-1.82,3.45-5.71,4.93-8.7c3.19-6.44,5.63-12.84,12.36-10.35s19.58,14.53,24.81,19.44c150.71,141.5,463.6,441.69,524.34,498.42,8.1,7.57,19.77,19.52,22.62,29.9,13.92,50.81,15.3,68.89,22.09,82.17,5.47,10.68,5.93,14.73,22.33,31.38,45.59,46.32,96,96.05,139.16,133.06A31.53,31.53,0,0,0,861,935.9c9.23.19,15.77-6.36,23-12.1,19.47-15.5,35.26-34.52,49.57-55,6.52-9.34,9.48-21.09,6-31.93-2.46-7.61-13.77-17.59-19.46-23.21-24.72-24.4-41.72-42.07-66.44-66.48s-49.25-47.68-79.82-64.37c-29.88-16.31-76-24.37-96.72-24.82-5.91-.77-36.44-30-53.22-46C575.61,566.12,147.72,163.41,109.25,121.93Z"/><path class="cls-9" d="M865.58,859.19l-.44-.24c-10.58-5.76-15.76-19.83-23.83-28.78-21-23.3-43.89-44.86-66.73-66.38l-58.21-54.87c-6.62-6.24-13.25-12.49-19.48-19.12C681.12,673,663.3,656.1,649,640.18c5.14-1,10,2.44,14.07,5.76q21.33,17.43,41.35,36.43c27.86,26.45,53.62,55,79.34,83.55l16.58,18.39,52,57.72C857.49,847.71,860.45,853.5,865.58,859.19Z"/><path class="cls-9" d="M837.73,742c-24.41-24.29-50-49.32-82.51-60.6-10.1-3.5-20.64-5.58-31.14-7.64l-23.54-4.63c-7.22-1.42-14.9-3.08-20.09-8.3,8.87-3.85,19.1-3,28.46-.56s18.3,6.33,27.73,8.45c7,1.58,14.31,2.16,21.15,4.45,15.55,5.19,26.85,18.35,40.2,27.86,6.19,4.41,12.88,8.07,19,12.57,6.65,4.9,12.55,10.73,18.42,16.54l95.42,94.42c2.79,2.77,5.64,5.61,7.29,9.18,1.12,2.42,2.89,8.66-1.07,9-3.26.3-7.66-6.71-9.56-8.78Q916.84,822.39,906,811c-14.37-15-29-29.85-43.7-44.58Q850,754.19,837.73,742Z"/><path class="cls-10" d="M635.17,649.29a6.3,6.3,0,0,1-3.73-1.81c-55.26-51.21-115.79-112.94-176.83-166.07A55,55,0,0,0,467.19,466c31,23.92,57.54,51.38,86.89,78.73,5.49,5.11,10.22,11,15.53,16.29,5.55,5.56,11.35,10.85,17.16,16.15l34.62,31.59,17,15.52c3.38,3.08,9.33,6.85,9.1,12.1C647.28,641.25,640.28,649.61,635.17,649.29Z"/><path class="cls-10" d="M103.84,118.36l.61-4.47c.38-2.79.8-5.71,2.42-8,2-2.81,5.34-4.22,8.06-6.32a18.76,18.76,0,0,0,6.59-9.84c-3.27-2.83-8.27-1.53-12.35-.09-6,2.11-12,4.26-17.28,7.77a62.78,62.78,0,0,0-10.47,9.21C75.28,113,69.57,120,65.84,128.1a105.91,105.91,0,0,0-5.54,16.62c-.54,2-1.07,4.09-.43,6a5.33,5.33,0,0,0,3.86,3.5c7.64-4,9.89-14.23,16.77-19.47,1.56-1.19,3.8-2.08,5.42-1a49,49,0,0,1,17-16"/><path class="cls-6" d="M816.36,818.33c-7.11-6.29-14.31-12.48-21.78-18.36-5.91-4.65-12-9.09-17.88-13.76-28.36-22.43-52.62-49.69-81-72.1A396.71,396.71,0,0,1,730.42,740c5.86,4.91,11.58,10,17.29,15l12.21,10.83,40.83,36.22a720.13,720.13,0,0,0-60.91-65.64c-8.1-7.71-16.38-15.23-24.66-22.75l-31.38-28.5c5.15,1,9.3,4.7,13.15,8.26,29.08,26.89,56.86,55.13,84.63,83.35l19.59,19.91q4.79,4.88,9.56,9.74c15.25,15.6,32,31,45.49,48.14-3-.78-5.46-4.22-7.63-6.34q-5.4-5.25-10.88-10.43Q827.18,827.93,816.36,818.33Z"/><path class="cls-6" d="M856.57,929.14c-12.19-7.54-23-17.13-33.56-26.77Q760.69,845.7,702.92,784.28c-4.68-5-9.37-10-12.77-15.94-3.78-6.61-5.81-14.05-7.81-21.39Q676.18,724.2,670,701.46c-1.76-6.52-3.86-13.53-9.3-17.54,4.16,27.28,8.51,55.15,21.36,79.57,9.59,18.24,23.54,33.78,37.82,48.64,25.37,26.42,52.23,51.35,79.07,76.27l30.58,28.39c5.48,5.09,11.05,10.24,17.69,13.68,4.68,2.42,12.79,5.42,17.84,3.23C863,931.64,859.12,930.71,856.57,929.14Z"/><path class="cls-3" d="M614,616.38q-8.81-8.48-17.62-16.91-14-13.41-28.26-26.63-14.72-13.68-29.55-27.23l-76.9-70.54-7.44,6.39,51,48.62,10.08,9.62,15.62,14.89q8.43,8,16.87,16Q571.35,593,595.17,615q12.41,11.46,24.86,22.85l12.38,11.35a4,4,0,0,0,1.82,1.14,3.71,3.71,0,0,0,2.28-.51c2.79-1.34,7.54-3.23,5.62-6.33-2.09-3.37-6.66-6.41-9.53-9.17Z"/><path class="cls-7" d="M840.27,929.57c-46.78-40.08-101.9-95.2-139.28-133.18-14.11-14.32-16.63-19.52-20.45-27.37-.67-1.39-1.39-2.86-2.22-4.49-4-7.77-6.17-17.23-9.81-32.9-2.72-11.72-6.44-27.77-12.43-49.65-2.05-7.46-9.47-17.22-22.07-29-25.58-23.9-97.09-92.12-179.89-171.12C339.53,372.55,196.92,236.49,109.66,154.57c-4.85-4.56-17.75-16.66-24.15-19-4.13-1.53-5.88,1.08-9.18,7.86l-.75,1.53c-.23.46-.46.93-.68,1.4A38.85,38.85,0,0,1,70.41,154c-2.46,3-4.36,4.17-8.46,2.38-3.24-1.42-4.82-4.5-4.19-8.23,5.07-30.45,28.57-56.06,57.14-62.28.28-.06,6.88-1.46,9,1.71,1.31,2,1.77,3.69,1.4,5.26-.56,2.38-2.76,3.64-5.08,5-.83.47-1.69,1-2.52,1.52-4,2.69-8.82,7.68-10.09,12.31-1.2,4.36-.21,5.43,3.08,9h0c30.72,33.12,311.24,298,446.05,425.26,34.16,32.25,58.84,55.56,68.51,64.75l1.86,1.77c13.45,12.8,44.86,42.68,50.19,43.66,21.73.5,67.53,8.76,97.32,25l.17.09c30.46,16.63,54.37,39.14,80.25,64.7,12.37,12.21,23,22.9,33.23,33.25s20.86,21,33.21,33.22c.82.81,1.75,1.71,2.76,2.68,6.3,6,14.93,14.34,17.18,21.32,3.47,10.74,1.2,23-6.23,33.64-16.8,24.05-32.67,41.66-50,55.41-.94.75-1.87,1.52-2.8,2.28-6.25,5.13-12.71,10.43-21.44,10.25a32,32,0,0,1-14.52-4A35.42,35.42,0,0,1,840.27,929.57ZM677.08,659.94h-.22c-5.28-.7-23.24-16.92-52.45-44.72l-1.86-1.76c-9.66-9.19-34.34-32.5-68.5-64.75C419.21,421.39,138.63,156.47,107.82,123.26h0c-3.46-3.74-5.76-6.21-4-12.67,1.65-6,7.32-11.55,11.66-14.49,1-.65,1.92-1.2,2.77-1.69,1.5-.85,3-1.74,3.22-2.47a3.42,3.42,0,0,0-.8-2.15c-.49-.43-2.92-.56-5-.12-27,5.89-49.31,30.19-54.13,59.11-.49,3,1.31,3.75,1.91,4,2,.87,2.11.92,3.87-1.26a36,36,0,0,0,4-6.91c.23-.48.46-1,.7-1.43s.49-1,.73-1.5c2.9-6,6.19-12.73,14.05-9.82,6.32,2.34,16.93,11.84,25.46,19.85,87.27,81.93,229.89,218,344.48,327.33,82.79,79,154.3,147.21,179.86,171.09,13.32,12.44,20.9,22.51,23.17,30.8,6,21.95,9.74,38,12.47,49.8,3.69,15.9,5.72,24.66,9.48,32,.84,1.66,1.57,3.15,2.26,4.56,3.65,7.51,6.06,12.48,19.72,26.35,37.33,37.92,92.36,93,139,132.94A29.6,29.6,0,0,0,861.06,934c7.29.15,12.92-4.47,18.88-9.36l2.86-2.32c17-13.51,32.61-30.86,49.18-54.59,6.73-9.63,8.81-20.65,5.72-30.21-2-6-10.51-14.27-16.17-19.71-1-1-2-1.89-2.8-2.71-12.37-12.21-23-22.91-33.23-33.25s-20.85-21-33.21-33.23c-25.67-25.35-49.36-47.66-79.38-64.05l-.17-.09C743.46,668.51,698.38,660.41,677.08,659.94Z"/><path class="cls-8" d="M891.37,121.93c3.36-3.62,5-5.42,3.53-10.82-1.41-5.13-6.47-10.42-10.87-13.4s-9.14-3.86-5.68-9.06c1-1.57,5.12-1.28,7-.88,28.61,6.22,50.82,31.81,55.63,60.69.37,2.22-.13,4.84-3.05,6.12s-4.07.77-6.17-1.82-3.45-5.71-4.93-8.7c-3.19-6.44-5.63-12.84-12.36-10.35s-19.57,14.53-24.8,19.44C738.91,294.65,426,594.84,365.28,651.57c-8.1,7.57-19.77,19.52-22.62,29.9-13.92,50.81-15.3,68.89-22.09,82.17-5.47,10.68-5.93,14.73-22.32,31.38-45.6,46.32-96,96.05-139.17,133.06a31.53,31.53,0,0,1-19.48,7.82c-9.22.19-15.77-6.36-23-12.1-19.47-15.5-35.26-34.52-49.57-55-6.52-9.34-9.48-21.09-6-31.93,2.46-7.61,13.77-17.59,19.46-23.21,24.72-24.4,41.72-42.07,66.44-66.48s49.25-47.68,79.82-64.37c29.88-16.31,76-24.37,96.72-24.82,5.91-.77,36.44-30,53.22-46C425,566.12,852.91,163.41,891.37,121.93Z"/><path class="cls-9" d="M135,859.19l.44-.24c10.58-5.76,15.76-19.83,23.83-28.78,21-23.3,43.89-44.86,66.73-66.38l58.21-54.87c6.62-6.24,13.25-12.49,19.48-19.12,15.77-16.8,33.59-33.7,47.9-49.62-5.14-1-10,2.44-14.07,5.76q-21.33,17.43-41.35,36.43c-27.86,26.45-53.62,55-79.34,83.55l-16.58,18.39-52,57.72C143.13,847.71,140.17,853.5,135,859.19Z"/><path class="cls-9" d="M162.89,742c24.41-24.29,50-49.32,82.51-60.6,10.11-3.5,20.64-5.58,31.14-7.64l23.54-4.63c7.22-1.42,14.9-3.08,20.09-8.3-8.87-3.85-19.1-3-28.46-.56s-18.3,6.33-27.73,8.45c-7,1.58-14.31,2.16-21.15,4.45-15.55,5.19-26.85,18.35-40.2,27.86-6.18,4.41-12.88,8.07-19,12.57-6.65,4.9-12.55,10.73-18.42,16.54L69.79,824.53c-2.79,2.77-5.64,5.61-7.29,9.18-1.12,2.42-2.89,8.66,1.07,9,3.27.3,7.66-6.71,9.57-8.78q10.64-11.55,21.5-22.9c14.38-15,29-29.85,43.7-44.58Q150.59,754.19,162.89,742Z"/><path class="cls-10" d="M365.45,649.29a6.3,6.3,0,0,0,3.73-1.81C424.44,596.27,485,534.54,546,481.41A55,55,0,0,1,533.43,466c-31,23.92-57.54,51.38-86.89,78.73-5.49,5.11-10.22,11-15.53,16.29-5.55,5.56-11.35,10.85-17.16,16.15l-34.62,31.59-17,15.52c-3.38,3.08-9.33,6.85-9.1,12.1C353.34,641.25,360.34,649.61,365.45,649.29Z"/><path class="cls-10" d="M896.78,118.36l-.61-4.47c-.37-2.79-.8-5.71-2.42-8-2-2.81-5.33-4.22-8-6.32a18.72,18.72,0,0,1-6.6-9.84c3.27-2.83,8.27-1.53,12.35-.09,6,2.11,12,4.26,17.28,7.77a62.78,62.78,0,0,1,10.47,9.21c6.14,6.43,11.85,13.43,15.58,21.5a105.91,105.91,0,0,1,5.54,16.62c.54,2,1.07,4.09.44,6a5.37,5.37,0,0,1-3.86,3.5c-7.65-4-9.89-14.23-16.78-19.47-1.56-1.19-3.8-2.08-5.42-1a48.88,48.88,0,0,0-17-16"/><path class="cls-6" d="M184.26,818.33C191.37,812,198.58,805.85,206,800c5.91-4.65,12-9.09,17.88-13.76,28.36-22.43,52.62-49.69,81-72.1A396.71,396.71,0,0,0,270.2,740c-5.86,4.91-11.58,10-17.29,15l-12.2,10.83-40.84,36.22a721.55,721.55,0,0,1,60.91-65.64c8.1-7.71,16.38-15.23,24.66-22.75l31.38-28.5c-5.15,1-9.3,4.7-13.15,8.26-29.08,26.89-56.86,55.13-84.63,83.35l-19.59,19.91q-4.78,4.88-9.56,9.74c-15.25,15.6-32,31-45.49,48.14,3-.78,5.46-4.22,7.63-6.34q5.4-5.25,10.88-10.43Q173.44,827.93,184.26,818.33Z"/><path class="cls-6" d="M144.05,929.14c12.19-7.54,23-17.13,33.56-26.77q62.32-56.67,120.1-118.09c4.67-5,9.36-10,12.76-15.94,3.78-6.61,5.82-14.05,7.81-21.39q6.17-22.76,12.34-45.49c1.77-6.52,3.86-13.53,9.3-17.54-4.16,27.28-8.51,55.15-21.36,79.57C309,781.73,295,797.27,280.74,812.13c-25.37,26.42-52.23,51.35-79.07,76.27l-30.58,28.39C165.61,921.88,160,927,153.4,930.47c-4.68,2.42-12.79,5.42-17.84,3.23C137.64,931.64,141.5,930.71,144.05,929.14Z"/><path class="cls-3" d="M386.62,616.38q8.81-8.48,17.62-16.91,14-13.41,28.26-26.63,14.72-13.68,29.55-27.23L539,475.07l7.44,6.39-51,48.62L485.3,539.7l-15.62,14.89q-8.43,8-16.87,16Q429.29,593,405.46,615,393,626.42,380.59,637.81l-12.38,11.35a4,4,0,0,1-1.82,1.14,3.71,3.71,0,0,1-2.28-.51c-2.79-1.34-7.54-3.23-5.62-6.33,2.09-3.37,6.66-6.41,9.53-9.17Z"/><path class="cls-7" d="M154.17,933.82a32.09,32.09,0,0,1-14.53,4c-8.73.18-15.19-5.12-21.44-10.25-.92-.76-1.86-1.53-2.8-2.28C98.11,911.57,82.24,894,65.45,869.91,58,859.27,55.74,847,59.21,836.27c2.25-7,10.88-15.27,17.18-21.32,1-1,2-1.87,2.76-2.68,12.36-12.19,23-22.88,33.21-33.22s20.86-21,33.23-33.25c25.88-25.56,49.79-48.07,80.25-64.7L226,681c29.8-16.2,75.59-24.46,97.32-25,5.33-1,36.74-30.86,50.19-43.66l1.86-1.77c9.67-9.19,34.36-32.5,68.52-64.75,134.81-127.28,415.32-392.14,446-425.26h0c3.29-3.55,4.28-4.62,3.08-9-1.27-4.63-6.12-9.62-10.09-12.31-.83-.56-1.69-1-2.52-1.52-2.32-1.33-4.52-2.59-5.08-5-.37-1.57.09-3.29,1.4-5.26,2.11-3.17,8.71-1.77,9-1.71,28.56,6.22,52.06,31.83,57.14,62.28.62,3.73-1,6.81-4.2,8.23-4.1,1.79-6,.66-8.46-2.38a38.32,38.32,0,0,1-4.48-7.66l-.69-1.4-.75-1.53c-3.3-6.78-5-9.39-9.18-7.86-6.4,2.37-19.3,14.47-24.15,19-87.26,81.92-229.87,218-344.46,327.31C463.7,560.88,392.19,629.1,366.61,653c-12.6,11.76-20,21.52-22.07,29-6,21.88-9.71,37.93-12.43,49.65-3.64,15.67-5.83,25.13-9.81,32.9-.83,1.63-1.54,3.1-2.22,4.49-3.82,7.85-6.34,13.05-20.45,27.37-37.38,38-92.49,93.1-139.28,133.18A35.72,35.72,0,0,1,154.17,933.82Zm73.71-249.39-.17.09c-30,16.39-53.71,38.7-79.38,64.05-12.35,12.2-23,22.89-33.21,33.23s-20.86,21-33.23,33.25c-.83.82-1.78,1.73-2.8,2.71-5.66,5.44-14.22,13.67-16.17,19.71-3.09,9.56-1,20.58,5.72,30.21,16.58,23.73,32.2,41.08,49.19,54.59,1,.77,1.9,1.54,2.85,2.32,6,4.89,11.59,9.51,18.88,9.36a29.65,29.65,0,0,0,18.26-7.35c46.67-40,101.7-95,139-132.94,13.65-13.87,16.06-18.84,19.71-26.35.69-1.41,1.42-2.9,2.26-4.56,3.76-7.34,5.79-16.1,9.48-32C331,719,334.77,702.9,340.78,681c2.28-8.29,9.85-18.36,23.17-30.8,25.57-23.88,97.07-92.1,179.86-171.09C658.41,369.73,801,233.66,888.29,151.73c8.53-8,19.14-17.51,25.46-19.85,7.86-2.91,11.15,3.85,14,9.82l.73,1.5c.24.47.47,1,.7,1.43a36,36,0,0,0,4,6.91c1.77,2.18,1.88,2.13,3.87,1.26.6-.27,2.4-1.06,1.91-4-4.82-28.92-27.08-53.22-54.12-59.11-2-.44-4.48-.31-5,.12a3.42,3.42,0,0,0-.8,2.15c.17.73,1.72,1.62,3.22,2.47.85.49,1.81,1,2.77,1.69,4.35,2.94,10,8.5,11.66,14.49,1.78,6.46-.51,8.93-4,12.67h0C862,156.47,581.41,421.39,446.57,548.7c-34.15,32.25-58.83,55.56-68.5,64.75l-1.86,1.76C347,643,329,659.23,323.76,659.93h-.21C302.25,660.41,257.16,668.51,227.88,684.43Z"/></svg>